{"title":"The Way 2010 XViD DVDRip DTRG - SAFCuk009","uid":6263665,"size":1545951292,"categoryP":"video","categoryS":"movies","magnet":"?xt=urn:btih:f915d6fe859bbcb1e7ae2cc8177a00b9d63b4eb7&amp;dn=The+Way+2010+XViD+DVDRip+DTRG+-+SAFCuk009&amp;tr=udp%3A%2F%2Ftracker.openbittorrent.com%3A80&amp;tr=udp%3A%2F%2Fopen.demonii.com%3A1337&amp;tr=udp%3A%2F%2Ftracker.coppersurfer.tk%3A6969&amp;tr=udp%3A%2F%2Fexodus.desync.com%3A6969","seeders":0,"leechers":1,"uploader":"SAFCukO09","files":3,"time":1300830281,"description":"Format                           : AVI\nFormat/Info                      : Audio Video Interleave\nFile size                        : 1.44 GiB\nDuration                         : 2h 3mn\nOverall bit rate                 : 1 675 Kbps\nWriting library                  : VirtualDub build 32839/release\n\nVideo\nID                               : 0\nFormat                           : MPEG-4 Visual\nFormat profile                   : Advanced Simple@L5\nFormat settings, BVOP            : Yes\nFormat settings, QPel            : No\nFormat settings, GMC             : No warppoints\nFormat settings, Matrix          : Custom\nCodec ID                         : XVID\nCodec ID/Hint                    : XviD\nDuration                         : 2h 3mn\nBit rate                         : 1 346 Kbps\nWidth                            : 592 pixels\nHeight                           : 320 pixels\nDisplay aspect ratio             : 1.850\nFrame rate                       : 25.000 fps\nColor space                      : YUV\nChroma subsampling               : 4:2:0\nBit depth                        : 8 bits\nScan type                        : Progressive\nBits/(Pixel*Frame)               : 0.284\nStream size                      : 1.16 GiB (80%)\nWriting library                  : XviD 1.2.1 (UTC 2008-12-04)\n\nAudio\nID                               : 1\nFormat                           : AC-3\nFormat/Info                      : Audio Coding 3\nMode extension                   : CM (complete main)\nCodec ID                         : 2000\nDuration                         : 2h 3mn\nBit rate mode                    : Constant\nBit rate                         : 320 Kbps\nChannel(s)                       : 2 channels\nChannel positions                : Front: L R\nSampling rate                    : 48.0 KHz\nBit depth                        : 16 bits\nStream size                      : 282 MiB (19%)\nAlignment                        : Split accross interleaves\nInterleave, duration             : 40 ms (1.00 video frame)\nInterleave, preload duration     : 500 ms\n\n\n\n &lt;a href=&quot;\nhttp://www.imdb.com/title/tt1441912/&quot; rel=&quot;nofollow&quot; target=&quot;_NEW&quot;&gt;\nhttp://www.imdb.com/title/tt1441912/&lt;/a&gt;\n\n\n\n\n\n\n\nUsers: 7.4/10 (153 votes) 1 review | Critics: 7 reviews\n\nAn American father travels to France to recover the body of his estranged son who died while traveling &quot;El camino de Santiago&quot; from France to Santiago de Compostela (Spain).\nDirector:\nEmilio Estevez\nWriter:\nEmilio Estevez (screenplay)\nStars:\nMartin Sheen, Emilio Estevez and Deborah Kara Unger \n\n\n\n\n\n\n\n &lt;a href=&quot;\nhttp://img859.imageshack.us/img859/9663/vlcsnap2011032215h24m14.png&quot; rel=&quot;nofollow&quot; target=&quot;_NEW&quot;&gt;\nhttp://img859.imageshack.us/img859/9663/vlcsnap2011032215h24m14.png&lt;/a&gt;\n &lt;a href=&quot;\nhttp://img200.imageshack.us/img200/6044/vlcsnap2011032215h24m05.png&quot; rel=&quot;nofollow&quot; target=&quot;_NEW&quot;&gt;\nhttp://img200.imageshack.us/img200/6044/vlcsnap2011032215h24m05.png&lt;/a&gt;\n &lt;a href=&quot;\nhttp://img580.imageshack.us/img580/2442/vlcsnap2011032215h24m38.png&quot; rel=&quot;nofollow&quot; target=&quot;_NEW&quot;&gt;\nhttp://img580.imageshack.us/img580/2442/vlcsnap2011032215h24m38.png&lt;/a&gt;\n\n\n\n\n\n\n\nGreetz to Imagine ,Flawl3ss,DiLLoN,BDK,NOiR,TOXiCiNK,THC,Ez,Rx,\n\n\n","torrent":{"xt":"urn:btih:f915d6fe859bbcb1e7ae2cc8177a00b9d63b4eb7","amp;dn":"The+Way+2010+XViD+DVDRip+DTRG+-+SAFCuk009","amp;tr":["udp%3A%2F%2Ftracker.openbittorrent.com%3A80","udp%3A%2F%2Fopen.demonii.com%3A1337","udp%3A%2F%2Ftracker.coppersurfer.tk%3A6969","udp%3A%2F%2Fexodus.desync.com%3A6969"],"infoHash":"f915d6fe859bbcb1e7ae2cc8177a00b9d63b4eb7","infoHashBuffer":{"type":"Buffer","data":[249,21,214,254,133,155,188,177,231,174,44,200,23,122,0,185,214,59,78,183]},"announce":[],"urlList":[]}}